<?xml version="1.0" encoding="utf-8"?>
<!-- Generator: Adobe Illustrator 19.2.1, SVG Export Plug-In . SVG Version: 6.00 Build 0)  -->
<svg version="1.1" id="Layer_1" xmlns="http://www.w3.org/2000/svg" xmlns:xlink="http://www.w3.org/1999/xlink" x="0px" y="0px"
	 viewBox="0 0 300 50" style="enable-background:new 0 0 300 50;" xml:space="preserve">
<style type="text/css">
	.st0{fill:#FFFFFF;}
</style>
<path class="st0" d="M20.6,0.2h10.1l20.2,48.9H39.1l-3.9-10.3H15.7l-4.2,10.3H0.2L20.6,0.2z M19.9,28.5h11.1l-5.7-14L19.9,28.5z"/>
<path class="st0" d="M44.2,0.2h40.3v10.6H69.8v38.4H58.7V10.8H44V0.2H44.2z"/>
<path class="st0" d="M91.5,49.2V0.2c2.7,0,15.3-0.2,16.5-0.2c13.3,0,18,6.6,18,15.7s-5.7,12.8-8.1,14l4.9,6.9
	c1.7,2.5,4.4,3.2,7.4,2.7v9.8c-4.4,1.7-11.1,0.7-15.7-6.1L106.7,32h-4.2v17.2H91.5z M102.8,10.8v10.8h3.9c4.2,0,7.6-1.5,7.6-5.7
	c0-2.7-1.5-5.4-6.9-5.4C106,10.6,105,10.8,102.8,10.8z"/>
<path class="st0" d="M136.2,0.2h29v10.6h-17.7v8.6h15.7V30h-15.7v8.9H166v10.3h-29.5V0.2H136.2z"/>
<path class="st0" d="M207.3,49.2l-23.1-29.3v29.3h-10.6V0.2h8.9l23.1,29.5V0.2h10.6v48.9H207.3z"/>
<path class="st0" d="M225.8,0.2h29v10.6h-18v8.6h15.7V30h-15.7v8.9h18.4v10.3h-29.5V0.2z"/>
<path class="st0" d="M259.5,0.2h40.3v10.6H285v38.4H274V10.8h-14.8V0.2H259.5z"/>
</svg>
